<?xml version="1.0" encoding="UTF-8" standalone="no"?>
<!-- Created with Inkscape (http://www.inkscape.org/) -->

<svg fill="transparent" width="1000" height="1000" stroke="#fff" stroke-linecap="round" stroke-linejoin="round" stroke-width="1">
  <!-- <defs
     id="defs1">
    <linearGradient
       id="swatch28">
      <stop
         style="stop-color:#ff0000;stop-opacity:1;"
         offset="0"
         id="stop28" />
    </linearGradient>
    <linearGradient
       id="swatch27">
      <stop
         style="stop-color:#ff0000;stop-opacity:1;"
         offset="0"
         id="stop27" />
    </linearGradient>
    <linearGradient
       id="swatch26">
      <stop
         style="stop-color:#ffff00;stop-opacity:1;"
         offset="0"
         id="stop26" />
    </linearGradient>
    <linearGradient
       id="swatch25">
      <stop
         style="stop-color:#ffff00;stop-opacity:1;"
         offset="0"
         id="stop25" />
    </linearGradient>
    <linearGradient
       id="swatch24">
      <stop
         style="stop-color:#ffff00;stop-opacity:1;"
         offset="0"
         id="stop24" />
    </linearGradient>
    <linearGradient
       id="swatch23">
      <stop
         style="stop-color:#ffff00;stop-opacity:1;"
         offset="0"
         id="stop23" />
    </linearGradient>
    <linearGradient
       id="swatch22">
      <stop
         style="stop-color:#ff0000;stop-opacity:1;"
         offset="0"
         id="stop22" />
    </linearGradient>
    <linearGradient
       id="swatch21">
      <stop
         style="stop-color:#ffff00;stop-opacity:1;"
         offset="0"
         id="stop21" />
    </linearGradient>
    <linearGradient
       id="swatch20">
      <stop
         style="stop-color:#ffff00;stop-opacity:1;"
         offset="0"
         id="stop20" />
    </linearGradient>
    <linearGradient
       id="swatch19">
      <stop
         style="stop-color:#ff0000;stop-opacity:1;"
         offset="0"
         id="stop19" />
    </linearGradient>
    <linearGradient
       id="swatch18">
      <stop
         style="stop-color:#0000ff;stop-opacity:1;"
         offset="0"
         id="stop18" />
    </linearGradient>
    <linearGradient
       id="swatch17">
      <stop
         style="stop-color:#0000ff;stop-opacity:1;"
         offset="0"
         id="stop17" />
    </linearGradient>
    <linearGradient
       id="swatch16">
      <stop
         style="stop-color:#0000ff;stop-opacity:1;"
         offset="0"
         id="stop16" />
    </linearGradient>
    <linearGradient
       id="swatch15">
      <stop
         style="stop-color:#0000ff;stop-opacity:1;"
         offset="0"
         id="stop15" />
    </linearGradient>
    <linearGradient
       id="swatch14">
      <stop
         style="stop-color:#0000ff;stop-opacity:1;"
         offset="0"
         id="stop14" />
    </linearGradient>
    <linearGradient
       id="swatch13">
      <stop
         style="stop-color:#0000ff;stop-opacity:1;"
         offset="0"
         id="stop13" />
    </linearGradient>
    <linearGradient
       id="swatch12">
      <stop
         style="stop-color:#0000ff;stop-opacity:1;"
         offset="0"
         id="stop12" />
    </linearGradient>
    <linearGradient
       id="swatch11">
      <stop
         style="stop-color:#0000ff;stop-opacity:1;"
         offset="0"
         id="stop11" />
    </linearGradient>
    <linearGradient
       id="swatch10">
      <stop
         style="stop-color:#0000ff;stop-opacity:1;"
         offset="0"
         id="stop10" />
    </linearGradient>
    <linearGradient
       id="swatch9">
      <stop
         style="stop-color:#0000ff;stop-opacity:1;"
         offset="0"
         id="stop9" />
    </linearGradient>
    <linearGradient
       id="swatch8">
      <stop
         style="stop-color:#0000ff;stop-opacity:1;"
         offset="0"
         id="stop8" />
    </linearGradient>
    <linearGradient
       id="swatch7">
      <stop
         style="stop-color:#0000ff;stop-opacity:1;"
         offset="0"
         id="stop7" />
    </linearGradient>
    <linearGradient
       id="swatch6">
      <stop
         style="stop-color:#0000ff;stop-opacity:1;"
         offset="0"
         id="stop6" />
    </linearGradient>
    <linearGradient
       id="swatch5">
      <stop
         style="stop-color:#0000ff;stop-opacity:1;"
         offset="0"
         id="stop5" />
    </linearGradient>
    <linearGradient
       id="swatch4">
      <stop
         style="stop-color:#0000ff;stop-opacity:1;"
         offset="0"
         id="stop4" />
    </linearGradient>
    <linearGradient
       id="swatch3">
      <stop
         style="stop-color:#0000ff;stop-opacity:1;"
         offset="0"
         id="stop3" />
    </linearGradient>
    <linearGradient
       id="swatch2">
      <stop
         style="stop-color:#0000ff;stop-opacity:1;"
         offset="0"
         id="stop2" />
    </linearGradient>
    <linearGradient
       xlink:href="#swatch22"
       id="linearGradient20"
       x1="32.766689"
       y1="117.04339"
       x2="55.023785"
       y2="117.04339"
       gradientUnits="userSpaceOnUse" />
    <linearGradient
       xlink:href="#swatch22"
       id="linearGradient21"
       x1="31.749605"
       y1="149.63943"
       x2="35.455238"
       y2="149.63943"
       gradientUnits="userSpaceOnUse" />
  </defs> -->
  <g
     id="layer1"
     transform="translate(-31.49313,-86.105276)">
    <path
       id="path20677"
       d="M 66.468896,143.8914 40.925891,123.93017 35.009275,137.70372 60.55228,157.66498 66.468896,143.8914"
       style="mix-blend-mode:color-burn;fill:none;stroke:#ff0000;stroke-width:0.326;stroke-linecap:round;stroke-linejoin:round;stroke-miterlimit:10;stroke-dasharray:none;stroke-opacity:1" />
    <path
       id="path20791"
       d="M 35.009275,137.70372 60.55228,157.66498"
       style="mix-blend-mode:color-burn;fill:none;stroke:#ff0000;stroke-width:0.0259883;stroke-linecap:round;stroke-linejoin:round;stroke-miterlimit:10;stroke-dasharray:none;stroke-opacity:1" />
    <path
       id="path20837"
       d="m 69.427206,137.0195 96.233334,75.23397"
       style="mix-blend-mode:color-burn;fill:none;stroke:#ff0000;stroke-width:0.426;stroke-linecap:round;stroke-linejoin:round;stroke-miterlimit:10;stroke-dasharray:none;stroke-opacity:1" />
    <path
       id="path20838"
       d="M 84.262902,102.60048 54.613586,171.43853"
       style="mix-blend-mode:color-burn;fill:none;stroke:#ff0000;stroke-width:0.426;stroke-linecap:round;stroke-linejoin:round;stroke-miterlimit:10;stroke-dasharray:none;stroke-opacity:1" />
    <path
       id="path20839"
       d="M 94.462443,110.60283 64.835205,179.41112"
       style="mix-blend-mode:color-burn;fill:none;stroke:#ff0000;stroke-width:0.426;stroke-linecap:round;stroke-linejoin:round;stroke-miterlimit:10;stroke-dasharray:none;stroke-opacity:1" />
    <path
       id="path20840"
       d="M 104.68406,118.57543 75.056822,187.41348"
       style="mix-blend-mode:color-burn;fill:none;stroke:#ff0000;stroke-width:0.426;stroke-linecap:round;stroke-linejoin:round;stroke-miterlimit:10;stroke-dasharray:none;stroke-opacity:1" />
    <path
       id="path20841"
       d="M 114.90568,126.5778 85.256363,195.38607"
       style="mix-blend-mode:color-burn;fill:none;stroke:#ff0000;stroke-width:0.426;stroke-linecap:round;stroke-linejoin:round;stroke-miterlimit:10;stroke-dasharray:none;stroke-opacity:1" />
    <path
       id="path20842"
       d="M 125.1273,134.55039 95.477981,203.38843"
       style="mix-blend-mode:color-burn;fill:none;stroke:#ff0000;stroke-width:0.426;stroke-linecap:round;stroke-linejoin:round;stroke-miterlimit:10;stroke-dasharray:none;stroke-opacity:1" />
    <path
       id="path20843"
       d="m 135.32684,142.55272 -29.62724,68.8083"
       style="mix-blend-mode:color-burn;fill:none;stroke:#ff0000;stroke-width:0.426;stroke-linecap:round;stroke-linejoin:round;stroke-miterlimit:10;stroke-dasharray:none;stroke-opacity:1" />
    <path
       id="path20844"
       d="m 145.54845,150.52534 -29.62723,68.83804"
       style="mix-blend-mode:color-burn;fill:none;stroke:#ff0000;stroke-width:0.426;stroke-linecap:round;stroke-linejoin:round;stroke-miterlimit:10;stroke-dasharray:none;stroke-opacity:1" />
    <path
       id="path20845"
       d="m 155.77007,158.52767 -14.81362,34.38929"
       style="mix-blend-mode:color-burn;fill:none;stroke:#ff0000;stroke-width:0.426;stroke-linecap:round;stroke-linejoin:round;stroke-miterlimit:10;stroke-dasharray:none;stroke-opacity:1" />
    <path
       id="path20846"
       d="m 165.99169,166.50029 -14.83569,34.419"
       style="mix-blend-mode:color-burn;fill:none;stroke:#ff0000;stroke-width:0.426;stroke-linecap:round;stroke-linejoin:round;stroke-miterlimit:10;stroke-dasharray:none;stroke-opacity:1" />
    <path
       id="path20847"
       d="m 140.95645,192.91696 -14.83569,34.41901"
       style="mix-blend-mode:color-burn;fill:none;stroke:#ff0000;stroke-width:0.426;stroke-linecap:round;stroke-linejoin:round;stroke-miterlimit:10;stroke-dasharray:none;stroke-opacity:1" />
    <path
       id="path20848"
       d="M 52.781202,96.412796 78.324207,116.37405"
       style="mix-blend-mode:color-burn;fill:none;stroke:#ff0000;stroke-width:0.326;stroke-linecap:round;stroke-linejoin:round;stroke-miterlimit:10;stroke-dasharray:none;stroke-opacity:1" />
    <path
       id="path20849"
       d="m 46.864586,110.15661 25.543005,19.99098"
       style="mix-blend-mode:color-burn;fill:none;stroke:#ff0000;stroke-width:0.326;stroke-linecap:round;stroke-linejoin:round;stroke-miterlimit:10;stroke-dasharray:none;stroke-opacity:1" />
    <path
       id="path20850"
       d="m 151.156,200.91929 -16.29278,33.25884"
       style="mix-blend-mode:color-burn;fill:none;stroke:#ff0000;stroke-width:0.426;stroke-linecap:round;stroke-linejoin:round;stroke-miterlimit:10;stroke-dasharray:none;stroke-opacity:1" />
    <path
       id="path20851"
       d="m 175.88216,174.23488 -14.81363,34.41903"
       style="mix-blend-mode:color-burn;fill:none;stroke:#ff0000;stroke-width:0.426;stroke-linecap:round;stroke-linejoin:round;stroke-miterlimit:10;stroke-dasharray:none;stroke-opacity:1" />
    <path
       id="path33869"
       d="m 63.157357,153.58942 -0.04416,0.26788 0.110392,0.32724 0.264923,0.32722 0.198692,0.1189 0.331154,0.17849 0.242847,-0.0298 0.176623,-0.20829 0.06623,-0.1487 0.04416,-0.29747 -0.110391,-0.29748 -0.264924,-0.32724 -0.176622,-0.1487 -0.35323,-0.14869 h -0.242847 l -0.176622,0.20828 -0.06623,0.17849"
       style="mix-blend-mode:color-burn;fill:none;stroke:#ff0000;stroke-width:0.0259883;stroke-linecap:round;stroke-linejoin:round;stroke-miterlimit:10;stroke-dasharray:none;stroke-opacity:1" />
    <path
       id="path20005"
       d="M 65.08644,87.612594 C 61.558767,84.854311 57.039731,86.471811 54.992868,91.225253"
       style="mix-blend-mode:color-burn;fill:none;stroke:#ff0000;stroke-width:0.326;stroke-linecap:round;stroke-linejoin:round;stroke-miterlimit:10;stroke-dasharray:none;stroke-opacity:1" />
    <path
       id="path20006"
       d="M 55.01097,91.236555 32.779505,142.85022"
       style="fill:none;stroke:url(#linearGradient20);stroke-width:0.326;stroke-linecap:round;stroke-linejoin:round;stroke-miterlimit:10;stroke-dasharray:none;stroke-opacity:1" />
    <path
       id="path20007"
       d="m 32.761402,142.83892 c -2.046973,4.75351 -0.846596,10.84287 2.681023,13.60102"
       style="fill:none;stroke:url(#linearGradient21);stroke-width:0.526;stroke-linecap:round;stroke-linejoin:round;stroke-miterlimit:10;stroke-dasharray:none;stroke-opacity:1" />
    <path
       id="path20008"
       d="m 35.472891,156.44528 99.390329,77.73285"
       style="mix-blend-mode:color-burn;fill:none;stroke:#ff0000;stroke-width:0.432003;stroke-linecap:round;stroke-linejoin:round;stroke-miterlimit:10;stroke-dasharray:none;stroke-opacity:1" />
    <path
       id="path20009"
       d="m 134.85483,234.17285 c 2.48167,1.94035 5.57283,1.7681 7.92711,-0.44162"
       style="mix-blend-mode:color-burn;fill:none;stroke:#ff0000;stroke-width:0.426;stroke-linecap:round;stroke-linejoin:round;stroke-miterlimit:10;stroke-dasharray:none;stroke-opacity:1" />
    <path
       id="path20010"
       d="m 142.78884,233.73191 40.09169,-37.63188"
       style="mix-blend-mode:color-burn;fill:none;stroke:#ff0000;stroke-width:0.426;stroke-linecap:round;stroke-linejoin:round;stroke-miterlimit:10;stroke-dasharray:none;stroke-opacity:1" />
    <path
       id="path20011"
       d="m 182.87365,196.06962 c 2.07097,-1.94389 3.26185,-5.17838 3.15759,-8.57634 -0.1043,-3.39802 -1.48914,-6.48895 -3.67215,-8.19586"
       style="mix-blend-mode:color-burn;fill:none;stroke:#ff0000;stroke-width:0.426;stroke-linecap:round;stroke-linejoin:round;stroke-miterlimit:10;stroke-dasharray:none;stroke-opacity:1" />
    <path
       id="path20012"
       d="M 182.37278,179.32187 65.100128,87.636987"
       style="mix-blend-mode:color-burn;fill:none;stroke:#ff0000;stroke-width:0.326;stroke-linecap:round;stroke-linejoin:round;stroke-miterlimit:10;stroke-dasharray:none;stroke-opacity:1" />
    <path
       style="mix-blend-mode:color-burn;fill:none;stroke:#ff0000;stroke-width:0.0039613;stroke-dasharray:none;stroke-opacity:1"
       d="m 167.17133,617.23561 -2.7486,-2.14967 0.0735,-0.001 0.0735,-10e-4 2.6731,2.0904 c 1.4702,1.14972 2.67446,2.09164 2.67613,2.09316 0.002,0.002 0.003,0.0287 0.002,0.0603 l -0.001,0.0576 z"
       id="path1"
       transform="scale(0.26458333)" />
    <path
       style="mix-blend-mode:color-burn;fill:none;stroke:#ff0000;stroke-width:0.0039613;stroke-dasharray:none;stroke-opacity:1"
       d="m 163.66913,614.49702 -0.75078,-0.58686 -1.9e-4,-0.0576 c -1.1e-4,-0.0317 6.8e-4,-0.0576 0.002,-0.0576 0.002,0 1.63288,1.27452 1.64246,1.28363 0.005,0.005 -0.005,0.005 -0.0684,0.005 l -0.0741,-5e-5 z"
       id="path2"
       transform="scale(0.26458333)" />
    <path
       style="fill:#ffffff;fill-opacity:1;stroke:#000000;stroke-width:1.51181;stroke-dasharray:none;stroke-opacity:1"
       d="m 171,618.39518 c -18.975,-14.84339 -36.21261,-28.65461 -38.3058,-30.69159 -2.09319,-2.03697 -5.23037,-6.5931 -6.97153,-10.12473 -2.74808,-5.57402 -3.21708,-7.69974 -3.555,-16.11294 -0.43777,-10.89909 0.66412,-15.90694 6.59344,-29.96592 1.97166,-4.675 3.69725,-8.65276 3.83465,-8.83945 0.22045,-0.29956 89.84963,69.25845 93.23969,72.35999 1.09881,1.00529 -0.47031,5.45321 -8.85486,25.10063 -5.60468,13.13336 -10.48063,24.19004 -10.83546,24.57042 C 205.79031,645.07196 189.975,633.23858 171,618.39518 Z"
       id="path31"
       transform="scale(0.26458333)" />
    <path
       style="fill:#ffffff;fill-opacity:1;stroke:#000000;stroke-width:1.51181;stroke-dasharray:none;stroke-opacity:1"
       d="m 181.53828,557.45013 c -25.27895,-19.78547 -46.33288,-36.34473 -46.78651,-36.79836 -0.69383,-0.69383 18.31636,-47.19276 20.19107,-49.38738 0.34561,-0.40459 5.11236,2.78379 10.59277,7.08529 5.48042,4.30149 26.65754,20.85855 47.06028,36.79346 l 37.0959,28.97256 -10.5959,24.67732 C 233.26815,582.36555 228.275,593.45985 228,593.44703 c -0.275,-0.0128 -21.18278,-16.21143 -46.46172,-35.9969 z"
       id="path32"
       transform="scale(0.26458333)" />
    <path
       style="fill:#ffffff;fill-opacity:1;stroke:#000000;stroke-width:1.51181;stroke-dasharray:none;stroke-opacity:1"
       d="m 203.42598,504.9494 c -25.80929,-20.17019 -46.81157,-37.22016 -46.67174,-37.88882 0.26943,-1.28835 20.23624,-47.8311 20.75758,-48.38603 0.23486,-0.25 90.17103,69.56727 93.78473,72.8049 0.62221,0.55745 -16.92856,42.96677 -20.20261,48.81717 -0.53013,0.94728 -14.1407,-9.14536 -47.66796,-35.34722 z"
       id="path33"
       transform="scale(0.26458333)" />
    <path
       style="fill:#ffffff;fill-opacity:1;stroke:#000000;stroke-width:1.51181;stroke-dasharray:none;stroke-opacity:1"
       d="m 226.98804,453.87661 c -25.01842,-19.55101 -46.11522,-36.15214 -46.88178,-36.8914 -1.18543,-1.14323 0.132,-4.90424 8.81483,-25.16466 5.61472,-13.1013 10.5169,-24.1292 10.89374,-24.50644 0.67891,-0.67963 91.93248,70.00638 93.50102,72.4269 0.50739,0.78298 -3.01844,10.14406 -9.32541,24.75899 -5.57769,12.925 -10.4502,23.82038 -10.8278,24.21196 -0.3776,0.39157 -21.15617,-15.28433 -46.1746,-34.83535 z"
       id="path34"
       transform="scale(0.26458333)" />
    <path
       style="fill:#ffffff;fill-opacity:1;stroke:#000000;stroke-width:1.51181;stroke-dasharray:none;stroke-opacity:1"
       d="m 248.21256,401.05704 c -25.45809,-19.96422 -46.50998,-36.52112 -46.78196,-36.79311 -1.17796,-1.17796 10.68349,-25.29968 14.29038,-29.06126 7.15686,-7.46379 17.33349,-9.8043 25.06886,-5.76554 5.6889,2.97027 75.75017,58.20783 75.41781,59.46076 -0.81678,3.07909 -20.63132,48.59181 -21.12812,48.52993 -0.31874,-0.0397 -21.40888,-16.40655 -46.86697,-36.37078 z"
       id="path35"
       transform="scale(0.26458333)" />
    <path
       style="fill:#ffffff;fill-opacity:1;stroke:#000000;stroke-width:1.51181;stroke-dasharray:none;stroke-opacity:1"
       d="m 282,531.48144 c -9.625,-7.63166 -17.35313,-14.46203 -17.17361,-15.17859 0.62529,-2.49599 53.31455,-124.309 54.1284,-125.14018 1.23905,-1.26544 36.24804,26.45662 35.75782,28.31503 -0.88024,3.33699 -54.09679,126.01747 -54.63518,125.95089 C 299.75984,545.38932 291.625,539.1131 282,531.48144 Z"
       id="path36"
       transform="scale(0.26458333)" />
    <path
       style="fill:#ffffff;fill-opacity:1;stroke:#000000;stroke-width:1.51181;stroke-dasharray:none;stroke-opacity:1"
       d="m 226,661.48144 c -9.625,-7.63166 -17.35313,-14.46203 -17.17361,-15.17859 0.5858,-2.33835 53.28758,-124.28141 54.04937,-125.06115 1.15255,-1.17972 36.18259,26.48813 35.7776,28.2583 -0.688,3.00713 -53.96632,125.9979 -54.55097,125.92859 C 243.77108,675.38932 235.625,669.1131 226,661.48144 Z"
       id="path37"
       transform="scale(0.26458333)" />
    <path
       style="fill:#ffffff;fill-opacity:1;stroke:#000000;stroke-width:1.51181;stroke-dasharray:none;stroke-opacity:1"
       d="m 264.91623,691.86266 c -9.57893,-7.50053 -17.5891,-13.7859 -17.80038,-13.96748 -0.32816,-0.28202 53.5648,-126.30979 54.40352,-127.22168 0.51866,-0.56392 36.50428,27.97329 36.14936,28.66707 -0.18554,0.36268 -12.44941,28.89464 -27.25304,63.40435 -14.80363,34.50971 -27.17839,62.74721 -27.49946,62.75001 -0.32107,0.003 -8.42107,-6.13173 -18,-13.63227 z"
       id="path38"
       transform="scale(0.26458333)" />
    <path
       style="fill:#ffffff;fill-opacity:1;stroke:#000000;stroke-width:1.51181;stroke-dasharray:none;stroke-opacity:1"
       d="m 320.95014,561.89353 c -9.59758,-7.48356 -17.6226,-13.76852 -17.83338,-13.96658 -0.5102,-0.47939 54.12081,-127.43037 54.83068,-127.41496 0.30391,0.007 7.75256,5.6762 16.55256,12.5991 8.8,6.92291 16.82128,13.17104 17.82506,13.88474 1.70758,1.21409 0.0659,5.39112 -25.5,64.8834 -15.02878,34.97218 -27.5725,63.59365 -27.87492,63.60327 -0.30242,0.01 -8.40242,-6.10541 -18,-13.58897 z"
       id="path39"
       transform="scale(0.26458333)" />
    <path
       style="fill:#ffffff;fill-opacity:1;stroke:#000000;stroke-width:1.51181;stroke-dasharray:none;stroke-opacity:1"
       d="m 360.04589,592.49717 c -9.59976,-7.54699 -17.6181,-14.2138 -17.81854,-14.81513 -0.33082,-0.99243 52.24068,-124.65674 53.75385,-126.44558 0.71905,-0.85004 36.61709,26.80813 36.35033,28.00664 -0.19172,0.86142 -54.41559,126.6982 -54.66752,126.86639 -0.0902,0.0602 -8.01836,-6.06533 -17.61812,-13.61232 z"
       id="path40"
       transform="scale(0.26458333)" />
    <path
       style="fill:#ffffff;fill-opacity:1;stroke:#000000;stroke-width:1.51181;stroke-dasharray:none;stroke-opacity:1"
       d="m 304.04589,722.49717 c -9.59976,-7.54699 -17.61443,-14.2028 -17.8104,-14.79069 -0.29444,-0.88332 49.4806,-117.89888 53.12543,-124.89194 1.09321,-2.09746 1.86393,-1.61851 19.13908,11.89351 9.9,7.74344 17.92188,14.3519 17.8264,14.68546 -0.25971,0.90737 -54.47915,126.58886 -54.66572,126.71598 -0.0884,0.0602 -8.01503,-6.06533 -17.61479,-13.61232 z"
       id="path41"
       transform="scale(0.26458333)" />
    <path
       style="fill:#ffffff;fill-opacity:1;stroke:#000000;stroke-width:1.51181;stroke-dasharray:none;stroke-opacity:1"
       d="M 342.43663,752.42487 C 332.57148,744.6739 324.55399,737.80745 324.61999,737.1661 324.86661,734.76934 378.42792,611.5 379.22271,611.5 c 0.71277,0 30.86832,23.10793 34.61076,26.52193 1.09413,0.9981 -3.37497,12.14423 -24.89823,62.09726 -14.42744,33.48445 -26.75602,62.12226 -27.39684,63.63958 l -1.16513,2.75877 z"
       id="path42"
       transform="scale(0.26458333)" />
    <path
       style="fill:#ffffff;fill-opacity:1;stroke:#000000;stroke-width:1.51181;stroke-dasharray:none;stroke-opacity:1"
       d="m 382.5,783.88644 c -8.8,-6.89026 -16.83376,-13.34221 -17.85279,-14.33766 -1.79937,-1.75773 -1.06756,-3.63706 25.38082,-65.17935 14.97849,-34.85319 27.28724,-63.43339 27.35279,-63.51156 0.0655,-0.0782 7.54418,5.7052 16.61918,12.85195 9.075,7.14674 17.26196,13.53518 18.19325,14.19653 1.53132,1.08746 -0.87658,7.17422 -25.17898,63.64805 -14.77973,34.34508 -27.2417,62.98879 -27.69326,63.6527 -0.57429,0.84435 -5.62916,-2.55761 -16.82101,-11.32066 z"
       id="path43"
       transform="scale(0.26458333)" />
    <path
       style="fill:#ffffff;fill-opacity:1;stroke:#000000;stroke-width:1.51181;stroke-dasharray:none;stroke-opacity:1"
       d="m 438.1343,653.5129 c -9.00114,-7.04865 -17.03972,-13.48975 -17.86352,-14.31355 -1.33043,-1.33043 1.54716,-8.57777 25.7484,-64.84859 14.98543,-34.84292 27.31783,-63.44458 27.40534,-63.55924 0.53003,-0.69451 36.02271,28.12034 35.79151,29.05746 -0.48885,1.98145 -53.42214,125.11522 -54.08606,125.81533 -0.34648,0.36538 -7.99454,-5.10276 -16.99567,-12.15141 z"
       id="path44"
       transform="scale(0.26458333)" />
    <path
       style="fill:#ffffff;fill-opacity:1;stroke:#000000;stroke-width:1.51181;stroke-dasharray:none;stroke-opacity:1"
       d="m 398.43663,622.42487 c -9.86515,-7.75097 -17.87988,-14.61742 -17.81052,-15.25877 0.16874,-1.56032 53.33198,-124.98385 54.19683,-125.82313 0.55993,-0.54337 30.61883,22.28507 35.01177,26.58993 1.10911,1.08687 -3.1003,11.59845 -24.90323,62.18752 -14.43086,33.48377 -26.76,62.12103 -27.39807,63.63835 l -1.16014,2.75877 z"
       id="path45"
       transform="scale(0.26458333)" />
    <path
       style="fill:#ffffff;fill-opacity:1;stroke:#000000;stroke-width:1.51181;stroke-dasharray:none;stroke-opacity:1"
       d="m 475.24127,682.49655 -18.10795,-14.1308 3.30524,-7.68288 C 497.4876,574.56423 511.279,542.84412 511.98404,542.12865 512.85157,541.24829 548,568.04004 548,569.58167 c 0,0.7984 -52.44987,123.11185 -53.9158,125.73201 -0.52603,0.9402 -5.88297,-2.70364 -18.84293,-12.81713 z"
       id="path46"
       transform="scale(0.26458333)" />
    <path
       style="fill:#ffffff;fill-opacity:1;stroke:#000000;stroke-width:1.51181;stroke-dasharray:none;stroke-opacity:1"
       d="m 419,812.45526 c -9.625,-7.62618 -17.38387,-14.34679 -17.24194,-14.9347 0.51152,-2.11877 53.39968,-124.53899 54.12546,-125.28418 0.71143,-0.73047 35.29808,25.47541 35.91444,27.21193 0.16389,0.46172 -11.694,28.67473 -26.35086,62.69559 -14.65685,34.02085 -26.87658,62.4186 -27.15495,63.1061 -0.27837,0.6875 -0.79548,1.20973 -1.14914,1.16052 C 436.78935,826.36131 428.625,820.08144 419,812.45526 Z"
       id="path47"
       transform="scale(0.26458333)" />
    <path
       style="fill:#ffffff;fill-opacity:1;stroke:#000000;stroke-width:1.51181;stroke-dasharray:none;stroke-opacity:1"
       d="m 460.45736,844.75 c -8.26748,-6.4625 -16.28695,-12.74183 -17.82103,-13.95406 l -2.78925,-2.20407 27.20067,-63.29594 c 14.96037,-34.81276 27.34436,-63.45802 27.51998,-63.65613 0.53002,-0.59786 36.48369,27.95818 36.11696,28.68573 -0.18699,0.37096 -12.45504,28.90342 -27.26233,63.40547 -14.8073,34.50206 -27.1498,62.73956 -27.42779,62.75001 -0.27798,0.0104 -7.26973,-5.26851 -15.53721,-11.73101 z"
       id="path48"
       transform="scale(0.26458333)" />
    <path
       style="fill:#ffffff;fill-opacity:1;stroke:#000000;stroke-width:1.51181;stroke-dasharray:none;stroke-opacity:1"
       d="m 494.5,871.48778 c -7.7,-6.00534 -14.39664,-11.52837 -14.88143,-12.27341 -0.59822,-0.91938 7.55283,-20.93158 25.3687,-62.2845 14.43757,-33.51143 26.766,-61.93133 27.39651,-63.15533 1.10777,-2.15048 1.74239,-1.76308 18.83856,11.5 9.73069,7.549 17.71498,14.17546 17.74286,14.72546 0.0651,1.28355 -59.29918,122.50533 -59.9652,122.44891 -0.275,-0.0233 -6.8,-4.9558 -14.5,-10.96113 z"
       id="path49"
       transform="scale(0.26458333)" />
    <path
       style="fill:#ffffff;fill-opacity:1;stroke:#000000;stroke-width:1.51181;stroke-dasharray:none;stroke-opacity:1"
       d="m 516.47417,714.7461 c -8.2642,-6.46036 -16.30164,-12.75015 -17.86098,-13.97732 l -2.83517,-2.23123 27.34752,-63.51878 c 15.04113,-34.93532 27.57857,-63.51702 27.86098,-63.51487 0.41515,0.003 14.44078,10.80645 33.36168,25.69695 l 2.79655,2.20085 -27.32237,63.54 C 544.79507,697.8887 532.275,726.48406 532,726.48695 c -0.275,0.003 -7.26162,-5.2805 -15.52583,-11.74085 z"
       id="path50"
       transform="scale(0.26458333)" />
    <path
       style="fill:#ffffff;fill-opacity:1;stroke:#000000;stroke-width:1.51181;stroke-dasharray:none;stroke-opacity:1"
       d="m 552.5,742.9409 c -13.615,-10.77491 -16.9621,-13.90053 -16.80967,-15.69735 0.16555,-1.95139 52.48833,-124.25555 53.658,-125.42522 0.24318,-0.24317 8.53728,5.90991 18.43133,13.67352 l 17.9892,14.11565 -21.00624,48.69625 c -11.55343,26.78294 -23.79855,55.19529 -27.21137,63.13856 -3.41282,7.94327 -6.62051,14.55708 -7.12819,14.69735 C 569.91538,756.27993 561.85,750.34049 552.5,742.9409 Z"
       id="path51"
       transform="scale(0.26458333)" />
    <path
       style="fill:#ffffff;fill-opacity:1;stroke:#000000;stroke-width:1.51181;stroke-dasharray:none;stroke-opacity:1"
       d="m 590,772.32731 c -9.075,-7.16042 -16.44407,-13.53832 -16.3757,-14.17313 0.16044,-1.48979 53.35525,-124.93593 54.22137,-125.82844 0.93757,-0.96612 34.6781,25.74947 34.53625,27.34562 -0.26263,2.95508 -53.8147,125.82301 -54.80899,125.75176 -0.59012,-0.0423 -8.49793,-5.9354 -17.57293,-13.09581 z"
       id="path52"
       transform="scale(0.26458333)" />
    <path
       style="fill:#ffffff;fill-opacity:1;stroke:#000000;stroke-width:1.51181;stroke-dasharray:none;stroke-opacity:1"
       d="M 515.25,886.75462 C 513.4625,885.86501 512,884.77308 512,884.32811 512,882.57262 571.37089,762.5 572.23891,762.5 c 0.743,0 37.5688,28.26918 49.01472,37.62595 l 2.75363,2.25103 -43.47454,40.81151 c -23.91099,22.44633 -45.3584,41.82401 -47.66091,43.06151 -5.00953,2.69241 -12.77884,2.91489 -17.62181,0.50462 z"
       id="path53"
       transform="scale(0.26458333)" />
    <path
       style="fill:#ffffff;fill-opacity:1;stroke:#000000;stroke-width:1.51181;stroke-dasharray:none;stroke-opacity:1"
       d="m 618.2916,794.35797 -7.92098,-6.06578 27.3928,-63.64088 c 15.06604,-35.00247 27.49002,-63.73809 27.60885,-63.85691 0.11882,-0.11883 6.27022,4.60382 13.66978,10.49477 15.41116,12.26918 18.86551,16.91372 21.54841,28.97285 2.79934,12.58249 0.13722,26.20859 -6.9244,35.44268 -1.74133,2.27705 -17.63073,17.77035 -35.30978,34.42957 l -32.14371,30.28948 z"
       id="path54"
       transform="scale(0.26458333)" />
  </g>
</svg>
